# xmcd
#
# Track frame offsets: 
#        150
#        12457
#        26015
#        40440
#        52777
#        67312
#        81910
#        97910
#        114500
#        128805
#        143477
#        159050
#        174745
#        188275
#        202555
#        217710
#        230015
#        242747
#        256392
#        274285
#        290835
#
# Disc length: 4038 seconds
#
# Revision: 0
# Processed by: cddbd v1.5.2PL0 Copyright (c) Steve Scherf et al.
# Submitted via: ExactAudioCopy v0.95b4
#
DISCID=1f0fc415
DTITLE=Tammy Wynette - Tears Of Fire: The 25th Anniversary Collection 
DTITLE=[Disc 3]
DYEAR=1992
DGENRE=Country
TTITLE0=Two-Story House (With George Jones)
TTITLE1=Cowboys Don't Shoot Straight (Like They Used To)
TTITLE2=Crying In The Rain
TTITLE3=Another Chance
TTITLE4=You Still Get To Me In My Dreams
TTITLE5=Unwed Fathers
TTITLE6=(I'm Not) A Candle In The Wind
TTITLE7=Sometimes When We Touch (With Mark Gray)
TTITLE8=Between Twenty-Nine And Danger
TTITLE9=Alive And Well
TTITLE10=Talkin' To Myself Again (With The O'Kanes
TTITLE11=I Wasn't Meant To Live My Life Alone (With Vince Gill)
TTITLE12=Beneath A Painted Sky (With Emmylou Harris)
TTITLE13=Your Love (With Ricky Skaggs)
TTITLE14=Higher Ground (With Larry, Steve, and Rudy Gatlin)
TTITLE15=Liar's Roses
TTITLE16=We're Strangers Again (Duet With Randy Travis)
TTITLE17=Suddenly Single
TTITLE18=It Could've Been So Good
TTITLE19=Justified And Ancient (With The KLF)
TTITLE20=Precious Memories (With The Masters Five)
EXTD=
EXTT0=
EXTT1=
EXTT2=
EXTT3=
EXTT4=
EXTT5=
EXTT6=
EXTT7=
EXTT8=
EXTT9=
EXTT10=
EXTT11=
EXTT12=
EXTT13=
EXTT14=
EXTT15=
EXTT16=
EXTT17=
EXTT18=
EXTT19=
EXTT20=
PLAYORDER=
